<svg xmlns="http://www.w3.org/2000/svg" width="844.982" height="539.811" viewBox="0 0 844.982 539.811">
    <path id="Path_290" data-name="Path 290" d="M321.2,922.638c2.007-14.588-6.815-24.735-13.573-34.223-8.534-11.985-5.838-23.7-3.872-35.544,2.167-13.049-.728-24.047-7.463-35.083a89.821,89.821,0,0,1-12.823-43.176,87.284,87.284,0,0,0-2.281-14.746c-2.876-12.947-6-25.839-9.017-38.756-.063-.274.014-.67-.15-.822-12.392-11.417-3.589-29.119-12.5-42.182-2.6-3.812-.123-14.193,3.581-18.526,6.965-8.146,6.023-16.545,5.385-25.5-.16-2.238-.846-4.435-1.217-6.665-2.03-12.193.808-17.755,11.279-24.577,3.343-2.177,5.69-5.875,8.512-8.859a36.563,36.563,0,0,1,7.507-6.524c2.058-5.531,5.559-10.837-1.178-17.216-5.509-5.216-.415-25.337,5.172-31.008,1.767-1.794.982-6.1.245-9.4,12.487-17.753,23.172-17.481,36.3-4.539,6.891,6.791,15.992,8.576,27.021,5.462,13.493-3.811,28.1-3.615,42.2-5.365,4.709-.584,9.346-2.645,14-2.611,13.839.105,27.672.9,41.506,1.487a6.1,6.1,0,0,1,3.21.962c17.443,12.92,38.487,9.143,57.973,12.484,19.6,3.361,39.225,2.99,58.9-.024,2.6-.4,6.459,1.617,8.382,3.738,4.156,4.585,7.446,9.958,11.068,15.023,6.575,9.191,15.473,11.1,25.725,6.394,13.794-6.326,23.8-15.207,27.485-30.893,1.6-6.82,6.272-13.092,10.278-19.127,3.9-5.872,8.76-11.1,13.148-16.654,28.716-36.354,29.533-34.9,69.248-57.319,28.147-15.886,58.214-20.512,88.966-24.791q74.643-10.383,149.279-20.846c7.822-1.094,15.748-1.751,23.424-3.5,6.228-1.418,8.294,1.321,10.408,6.442,12.846,31.114,25.981,62.11,39.065,93.127,6.047,14.334,9.621,30.676,18.96,42.417,11.643,14.635,15.8,32.072,24.612,47.54,1.489,2.616,2.214,5.669,3.453,8.951-12.523,4.793-24.49,9.439-36.5,13.956-19.668,7.392-32.244,21.341-37.566,41.492-.914,3.464.916,7.7,1.651,11.541.88,4.6,1.791,9.2,2.97,13.733,1.481,5.691-1.836,6.871-6.343,8.59-11.773,4.491-24.607,7.926-34.518,15.192-16.368,12-34.853,17.393-53.655,22.461-12.773,3.443-26.28,4.384-38.809,8.447-10.277,3.332-19.411,10.035-29.415,14.416-4.846,2.122-10.576,2.133-15.811,3.47-13.874,3.544-27.96,6.526-41.458,11.185-11.555,3.989-22.521,9.774-33.5,15.251-2.824,1.409-5.845,4.25-6.872,7.116-4.335,12.081-13.761,20.032-22.323,28.627-2.3,2.311-6.083,3.518-9.405,4.366a171.46,171.46,0,0,1-17.663,3.327c-10.207,1.488-20.116,1.724-30.088-2.755-3.106-1.4-8.541,1.377-12.506,3.144a104.978,104.978,0,0,0-15.25,8.551c-5.1,3.394-10.491,6.769-14.537,11.248-12.264,13.582-29.468,14.494-45.38,18.839-2.708.739-5.644,1.147-8.023,2.5-15.532,8.838-32.22,8.42-49.478,8.532-16.994.111-34.2,3.234-50.809,7.179-5.877,1.4-11.02,8.554-15.09,14.109-4.12,5.623-8.474,9.439-15.461,10.608-9.153,1.532-16.846,5.315-18.843,16.111-6.292.315-12.472,1.054-17.093,8.122-3.617-1.333-8.791-3.27-13.987-5.145-6.573-2.373-11.626.584-15.994,5-6.74,6.8-14.346,10.6-24.154,8.132-.8-.2-1.952-.425-2.5-.031-12.746,9.208-22.81-1.5-33.609-4.9C334.129,918.333,327.66,915.224,321.2,922.638Z" transform="translate(-258.44 -389.352)" fill="#eaf0f2"/>
</svg>
